HIERARCHY
ROOT SpineBase
{
  OFFSET 0.000000 0.000000 0.000000
  CHANNELS 6 Xposition Yposition Zposition Zrotation Xrotation Yrotation
  JOINT SpineMid
  {
    OFFSET 0.000000 28.551622 0.000000
    CHANNELS 3 Zrotation Xrotation Yrotation
    JOINT SpineShoulder
    {
      OFFSET 0.027141 21.232479 -0.636731
      CHANNELS 3 Zrotation Xrotation Yrotation
      JOINT Neck
      {
        OFFSET -0.006001 7.028943 -0.500944
        CHANNELS 3 Zrotation Xrotation Yrotation
        JOINT Head
        {
          OFFSET -2.133198 12.267950 -0.562631
          CHANNELS 3 Zrotation Xrotation Yrotation
          End Site
          {
            OFFSET 0 0 0
          }
        }
      }
      JOINT ShoulderLeft
      {
        OFFSET -16.505471 -2.481620 4.544236
        CHANNELS 3 Zrotation Xrotation Yrotation
        JOINT ElbowLeft
        {
          OFFSET -4.813110 -24.780057 2.694936
          CHANNELS 3 Zrotation Xrotation Yrotation
          JOINT WristLeft
          {
            OFFSET -3.592247 -19.386383 -5.298081
            CHANNELS 3 Zrotation Xrotation Yrotation
            JOINT HandLeft
            {
              OFFSET -0.480379 -7.624226 -1.354424
              CHANNELS 3 Zrotation Xrotation Yrotation
              JOINT HandTipLeft
              {
                OFFSET -1.227350 -6.655939 -0.756608
                CHANNELS 3 Zrotation Xrotation Yrotation
                End Site
                {
                  OFFSET 0 0 0
                }
              }
              JOINT ThumbLeft
              {
                OFFSET 4.836099 -0.999840 -1.634738
                CHANNELS 3 Zrotation Xrotation Yrotation
                End Site
                {
                  OFFSET 0 0 0
                }
              }
            }
          }
        }
      }
      JOINT ShoulderRight
      {
        OFFSET 15.538161 -1.724799 -4.723116
        CHANNELS 3 Zrotation Xrotation Yrotation
        JOINT ElbowRight
        {
          OFFSET 6.327209 -24.693689 -4.179954
          CHANNELS 3 Zrotation Xrotation Yrotation
          JOINT WristRight
          {
            OFFSET 5.537573 -22.220094 -4.955323
            CHANNELS 3 Zrotation Xrotation Yrotation
            JOINT HandRight
            {
              OFFSET 1.868512 -6.293459 -2.762665
              CHANNELS 3 Zrotation Xrotation Yrotation
              JOINT HandTipRight
              {
                OFFSET 2.145869 -6.923613 -3.073873
                CHANNELS 3 Zrotation Xrotation Yrotation
                End Site
                {
                  OFFSET 0 0 0
                }
              }
              JOINT ThumbRight
              {
                OFFSET 2.593397 1.024247 -1.968594
                CHANNELS 3 Zrotation Xrotation Yrotation
                End Site
                {
                  OFFSET 0 0 0
                }
              }
            }
          }
        }
      }
    }
  }
  JOINT HipLeft
  {
    OFFSET -6.097352 -0.085853 -1.862204
    CHANNELS 3 Zrotation Xrotation Yrotation
    JOINT KneeLeft
    {
      OFFSET -7.167617 -27.862897 3.059386
      CHANNELS 3 Zrotation Xrotation Yrotation
      JOINT AnkleLeft
      {
        OFFSET -1.977788 -36.820770 7.788530
        CHANNELS 3 Zrotation Xrotation Yrotation
        JOINT FootLeft
        {
          OFFSET -2.485750 -4.870756 -11.014462
          CHANNELS 3 Zrotation Xrotation Yrotation
          End Site
          {
            OFFSET 0 0 0
          }
        }
      }
    }
  }
  JOINT HipRight
  {
    OFFSET 5.685858 1.297871 -4.710546
    CHANNELS 3 Zrotation Xrotation Yrotation
    JOINT KneeRight
    {
      OFFSET 6.009526 -31.225827 2.961047
      CHANNELS 3 Zrotation Xrotation Yrotation
      JOINT AnkleRight
      {
        OFFSET -0.403083 -35.852521 7.201070
        CHANNELS 3 Zrotation Xrotation Yrotation
        JOINT FootRight
        {
          OFFSET -2.815005 -3.809321 -12.844210
          CHANNELS 3 Zrotation Xrotation Yrotation
          End Site
          {
            OFFSET 0 0 0
          }
        }
      }
    }
  }
}
MOTION
Frames: 10
Frame Time: 0.033333
24.614219 73.303444 371.466575 3.951099 0.349947 14.616252 0.179418 -0.406342 -14.488012 -0.100398 -0.067628 0.169788 10.212348 3.995397 0.531293 0.000000 0.000000 0.000000 1.846945 4.896694 -0.852572 -4.343103 -8.012788 0.383865 6.719285 4.362190 -2.209366 -3.093943 15.230641 -2.851518 0.000000 0.000000 0.000000 0.000000 0.000000 0.000000 22.160675 23.662472 -3.915187 -146.503247 46.958752 114.267835 -67.152919 50.736520 -38.621360 50.338770 23.246701 104.703847 0.000000 0.000000 0.000000 0.000000 0.000000 0.000000 -1.540546 2.441400 -15.068056 -1.827662 -2.336180 0.360801 -1.827183 6.466542 0.820331 0.000000 0.000000 0.000000 -1.169621 1.274426 -14.168773 -1.127761 -1.203575 -0.204941 -1.836673 -0.606345 1.675241 0.000000 0.000000 0.000000
24.498787 73.298660 371.439101 3.910667 0.371407 14.301740 0.097927 -0.336524 -14.180663 -0.146482 -0.059333 0.160457 10.977914 3.699884 0.557571 0.000000 0.000000 0.000000 1.794295 5.018570 -0.899063 -4.554333 -8.947364 0.673164 8.067813 7.446693 -3.132907 -3.150605 11.238511 -2.316154 0.000000 0.000000 0.000000 0.000000 0.000000 0.000000 21.431488 24.138577 -3.531189 -140.677464 54.202795 114.218528 -79.694677 59.527267 -43.409151 34.990536 3.588531 62.370596 0.000000 0.000000 0.000000 0.000000 0.000000 0.000000 -1.475798 2.288530 -14.719226 -1.900626 -2.236423 0.327472 -1.722678 6.530130 0.578819 0.000000 0.000000 0.000000 -1.138779 1.234708 -13.854484 -0.998665 -1.070508 -0.178811 -1.911395 -0.680187 1.403180 0.000000 0.000000 0.000000
24.390563 73.289699 371.395668 3.859630 0.469205 13.971499 0.057713 -0.239736 -13.860452 -0.174660 -0.025747 0.152648 11.498224 2.968379 0.601970 0.000000 0.000000 0.000000 1.818714 4.969639 -0.923571 -4.775762 -9.475465 0.841313 8.451213 8.979047 -3.527063 -2.967492 10.183425 -2.274644 0.000000 0.000000 0.000000 0.000000 0.000000 0.000000 19.785001 23.837377 -2.809580 -125.519165 54.123458 94.928702 -82.621389 46.511400 -32.038665 20.337837 -3.751612 19.611059 0.000000 0.000000 0.000000 0.000000 0.000000 0.000000 -1.350827 1.964559 -14.326410 -2.063180 -2.060213 0.264624 -1.461560 6.692609 -0.025178 0.000000 0.000000 0.000000 -1.036441 0.952105 -13.539173 -1.122844 -0.715402 -0.170664 -1.756380 -0.757827 0.789502 0.000000 0.000000 0.000000
24.216345 73.246569 371.370294 3.866874 0.544627 13.755852 0.107751 -0.212792 -13.646970 -0.128373 -0.030078 0.158353 10.927310 2.693907 0.601965 0.000000 0.000000 0.000000 1.629076 4.992976 -0.962739 -4.459607 -9.528656 0.831973 7.657716 10.652761 -3.494687 -1.916055 8.989499 -2.371447 0.000000 0.000000 0.000000 0.000000 0.000000 0.000000 17.896873 22.849563 -2.199820 -106.009334 53.432695 73.739321 -80.719993 31.844932 -20.209523 26.606658 -10.939686 -1.987678 0.000000 0.000000 0.000000 0.000000 0.000000 0.000000 -1.095747 1.720021 -14.054481 -2.384870 -1.964698 0.201205 -1.102204 6.868485 -0.833564 0.000000 0.000000 0.000000 -0.770924 0.482646 -13.341960 -1.508440 -0.230663 -0.156060 -1.499453 -0.580340 -0.301904 0.000000 0.000000 0.000000
23.970225 73.174991 371.355378 3.854634 0.638731 13.659528 0.194459 -0.226796 -13.551071 -0.040964 -0.037984 0.168472 9.772018 2.420520 0.575185 0.000000 0.000000 0.000000 1.374895 5.076032 -1.018889 -3.521587 -9.197301 0.655928 5.138824 10.583855 -2.634077 -0.149702 9.089751 -2.639842 0.000000 0.000000 0.000000 0.000000 0.000000 0.000000 16.661393 21.398682 -1.909952 -90.363922 51.134754 58.018115 -71.221470 16.161013 -21.397868 26.911117 -17.393705 -14.187626 0.000000 0.000000 0.000000 0.000000 0.000000 0.000000 -0.588966 1.364750 -13.865194 -2.955085 -1.833265 0.098974 -0.711152 7.047062 -1.705899 0.000000 0.000000 0.000000 -0.351079 0.070299 -13.232801 -1.828261 0.144002 -0.134215 -1.671691 -0.744544 -0.337782 0.000000 0.000000 0.000000
23.695192 73.166021 371.356481 3.880855 0.741870 13.683340 0.347111 -0.256943 -13.571780 0.113284 -0.037875 0.188078 7.808552 2.143130 0.512894 0.000000 0.000000 0.000000 0.877509 5.112437 -1.085022 -3.281997 -8.974604 0.623503 4.680843 11.767278 -2.573392 -0.211159 8.211154 -2.602063 0.000000 0.000000 0.000000 0.000000 0.000000 0.000000 16.327993 19.613928 -2.024094 -83.838494 47.868126 50.270883 -53.351443 -5.450982 -28.715893 17.925756 -13.558069 -12.493708 0.000000 0.000000 0.000000 0.000000 0.000000 0.000000 -0.263668 1.188193 -13.852292 -3.339993 -1.840115 0.052424 -0.463324 7.154655 -2.255507 0.000000 0.000000 0.000000 0.261369 -0.127830 -13.181535 -2.340548 -0.122464 -0.172785 -1.494444 -0.490849 -1.521205 0.000000 0.000000 0.000000
23.414393 73.222349 371.377966 3.857238 0.888740 13.889212 0.422238 -0.205410 -13.783002 0.181601 0.023932 0.193347 6.669291 1.393574 0.480021 0.000000 0.000000 0.000000 0.626646 5.070021 -1.146488 -3.176478 -8.954460 0.645656 4.583171 13.340044 -2.680776 -0.379966 5.724807 -2.222093 0.000000 0.000000 0.000000 0.000000 0.000000 0.000000 15.970037 18.088552 -1.963884 -86.140157 44.335240 49.546133 -38.122903 -23.345006 -33.296750 10.373080 -8.956858 -8.772700 0.000000 0.000000 0.000000 0.000000 0.000000 0.000000 0.017466 1.232428 -14.108556 -3.572837 -2.098456 0.081179 -0.264307 7.273940 -2.709479 0.000000 0.000000 0.000000 0.938316 -0.369227 -13.301968 -3.006674 -0.214986 -0.250192 -1.404593 -0.365016 -1.987316 0.000000 0.000000 0.000000
23.171199 73.299387 371.417450 3.852483 0.987966 14.116642 0.520342 -0.212349 -14.010305 0.268736 0.042430 0.203762 5.342259 1.163857 0.430038 0.000000 0.000000 0.000000 0.432451 4.918631 -1.151406 -3.316090 -8.291364 0.534266 4.300907 15.076297 -2.678142 0.104587 1.958927 -1.659473 0.000000 0.000000 0.000000 0.000000 0.000000 0.000000 15.246006 16.951389 -1.852139 -90.196191 43.163983 52.678284 -32.240424 -33.696343 -38.611018 6.497460 -5.428101 -5.491524 0.000000 0.000000 0.000000 0.000000 0.000000 0.000000 0.134066 1.369012 -14.405365 -3.639956 -2.361437 0.131332 -0.255020 9.451033 -3.564688 0.000000 0.000000 0.000000 1.304853 -0.298994 -13.452796 -3.052606 -0.590998 -0.270508 -1.616141 -0.183040 -2.359478 0.000000 0.000000 0.000000
23.002894 73.387791 371.399030 3.881924 1.092211 14.297911 0.530602 -0.252959 -14.191842 0.263189 0.028800 0.206228 4.568477 1.197611 0.409631 0.000000 0.000000 0.000000 0.298975 4.968592 -1.184509 -3.251168 -7.729983 0.436960 4.036106 16.271638 -2.619375 -0.534774 0.304409 -1.517759 0.000000 0.000000 0.000000 0.000000 0.000000 0.000000 14.823051 15.899908 -1.811095 -99.090079 42.410543 60.659310 -24.255942 -40.582518 -38.493420 0.790236 -1.393738 -0.772649 0.000000 0.000000 0.000000 0.000000 0.000000 0.000000 0.064087 1.288253 -14.591918 -3.616979 -2.369696 0.136152 -0.094393 6.809351 -2.871867 0.000000 0.000000 0.000000 1.183873 -0.396032 -13.641711 -2.650534 -0.814103 -0.180381 -1.957884 0.058778 -2.421030 0.000000 0.000000 0.000000
22.879525 73.426547 371.389751 3.848384 1.089880 14.303321 0.453141 -0.282771 -14.198961 0.180439 -0.004670 0.196577 4.711982 1.845756 0.464388 0.000000 0.000000 0.000000 0.235279 5.116505 -1.206864 -2.723353 -7.120526 0.309741 2.196397 15.026758 -1.818451 0.569705 2.080730 -1.911389 0.000000 0.000000 0.000000 0.000000 0.000000 0.000000 13.872942 15.396536 -1.550063 -106.613654 42.452075 69.706530 -30.219425 -32.645188 -39.874159 4.970266 1.407402 2.498279 0.000000 0.000000 0.000000 0.000000 0.000000 0.000000 0.019415 1.294711 -14.603115 -3.538157 -2.362689 0.144797 0.061587 4.546891 -2.260744 0.000000 0.000000 0.000000 0.894738 -0.331183 -13.683640 -2.072160 -1.009845 -0.083919 -2.212022 0.258598 -2.448973 0.000000 0.000000 0.000000
